<svg width="43" height="43" viewBox="0 0 43 43" fill="none" xmlns="http://www.w3.org/2000/svg">
<g id="Perfect Training Match icon" clip-path="url(#clip0_62_643)">
<g id="Group 18">
<g id="Group 17">
<path id="Path 28" d="M40.4651 3.07366e-06H10.3944C9.72461 -0.00104028 9.08171 0.263579 8.6067 0.735839C8.13168 1.2081 7.86333 1.84945 7.86047 2.51927V5.37451C7.86047 5.59857 7.94948 5.81346 8.10791 5.97189C8.26635 6.13032 8.48123 6.21933 8.70529 6.21933C8.92935 6.21933 9.14424 6.13032 9.30267 5.97189C9.4611 5.81346 9.55011 5.59857 9.55011 5.37451V2.51927C9.55114 2.29611 9.64059 2.08246 9.79885 1.92512C9.9571 1.76778 10.1713 1.67958 10.3944 1.67984H40.4651C40.6882 1.67958 40.9024 1.76778 41.0606 1.92512C41.2189 2.08246 41.3083 2.29611 41.3094 2.51927V40.4798C41.3083 40.7029 41.2189 40.9166 41.0606 41.0739C40.9024 41.2312 40.6882 41.3194 40.4651 41.3192H10.3944C10.1713 41.3194 9.9571 41.2312 9.79885 41.0739C9.64059 40.9166 9.55114 40.7029 9.55011 40.4798V37.7646C9.55011 37.5405 9.4611 37.3256 9.30267 37.1672C9.14424 37.0088 8.92935 36.9198 8.70529 36.9198C8.48123 36.9198 8.26635 37.0088 8.10791 37.1672C7.94948 37.3256 7.86047 37.5405 7.86047 37.7646V40.4798C7.86307 41.1497 8.1313 41.7913 8.60634 42.2638C9.08139 42.7363 9.72444 43.001 10.3944 43H40.4651C41.1349 43.001 41.7778 42.7364 42.2528 42.2642C42.7278 41.7919 42.9962 41.1506 42.999 40.4807V2.51927C42.9962 1.84945 42.7278 1.2081 42.2528 0.735839C41.7778 0.263579 41.1349 -0.00104028 40.4651 3.07366e-06Z" fill="#56BDFD"/>
</g>
</g>
<g id="Group 20">
<g id="Group 19">
<path id="Path 29" d="M36.6048 32.4508H16.9522C16.735 32.4508 16.5267 32.5371 16.3731 32.6907C16.2196 32.8442 16.1333 33.0525 16.1333 33.2697C16.1333 33.4868 16.2196 33.6951 16.3731 33.8487C16.5267 34.0023 16.735 34.0885 16.9522 34.0885H36.6048C36.822 34.0885 37.0303 34.0023 37.1838 33.8487C37.3374 33.6951 37.4237 33.4868 37.4237 33.2697C37.4237 33.0525 37.3374 32.8442 37.1838 32.6907C37.0303 32.5371 36.822 32.4508 36.6048 32.4508Z" fill="#56BDFD"/>
</g>
</g>
<g id="Group 22">
<g id="Group 21">
<path id="Path 30" d="M37.1828 37.1798C37.0489 37.0461 36.8728 36.963 36.6845 36.9446C36.4962 36.9262 36.3074 36.9736 36.1501 37.0788C35.9929 37.1839 35.877 37.3404 35.8221 37.5215C35.7673 37.7025 35.7769 37.897 35.8493 38.0718C35.9218 38.2466 36.0526 38.3908 36.2195 38.4799C36.3863 38.5691 36.5789 38.5977 36.7645 38.5607C36.95 38.5238 37.117 38.4237 37.2371 38.2775C37.3571 38.1312 37.4227 37.9479 37.4228 37.7587C37.4222 37.5417 37.3359 37.3336 37.1828 37.1798Z" fill="#56BDFD"/>
</g>
</g>
<g id="Group 24">
<g id="Group 23">
<path id="Path 31" d="M32.8553 36.9398H16.5515C16.3344 36.9398 16.1261 37.0261 15.9725 37.1797C15.8189 37.3333 15.7327 37.5415 15.7327 37.7587C15.7327 37.9759 15.8189 38.1842 15.9725 38.3377C16.1261 38.4913 16.3344 38.5776 16.5515 38.5776H32.8553C33.0724 38.5776 33.2807 38.4913 33.4343 38.3377C33.5879 38.1842 33.6741 37.9759 33.6741 37.7587C33.6741 37.5415 33.5879 37.3333 33.4343 37.1797C33.2807 37.0261 33.0724 36.9398 32.8553 36.9398Z" fill="#56BDFD"/>
</g>
</g>
<g id="Group 26">
<g id="Group 25">
<path id="Path 32" d="M22.1817 7.50492C20.4118 7.50407 18.6824 8.03496 17.2178 9.02877C15.7532 10.0226 14.6209 11.4335 13.9678 13.0785C13.3146 14.7235 13.1708 16.5268 13.5548 18.2546C13.9388 19.9824 14.8331 21.555 16.1216 22.7685C16.1518 22.8005 16.1845 22.83 16.2195 22.8566C17.8469 24.3506 19.9756 25.1796 22.1847 25.1796C24.3938 25.1796 26.5225 24.3506 28.1498 22.8566C28.1848 22.8299 28.2176 22.8004 28.2478 22.7685C29.5363 21.555 30.4305 19.9824 30.8146 18.2546C31.1986 16.5268 31.0547 14.7235 30.4016 13.0785C29.7485 11.4335 28.6162 10.0226 27.1516 9.02877C25.687 8.03496 23.9576 7.50407 22.1876 7.50492H22.1817ZM22.1817 23.5413C20.5634 23.5428 18.9922 22.9962 17.7241 21.9907C18.1545 21.1825 18.7966 20.5066 19.5816 20.0352C20.3667 19.5639 21.2651 19.3149 22.1808 19.3149C23.0965 19.3149 23.9949 19.5639 24.7799 20.0352C25.565 20.5066 26.2071 21.1825 26.6375 21.9907C25.3699 22.9958 23.7995 23.5423 22.1817 23.5413ZM20.4578 15.9511V15.3154C20.4524 15.0857 20.4929 14.8571 20.577 14.6432C20.6612 14.4293 20.7872 14.2344 20.9478 14.07C21.1084 13.9055 21.3002 13.7748 21.5121 13.6856C21.7239 13.5964 21.9514 13.5504 22.1813 13.5504C22.4111 13.5504 22.6386 13.5964 22.8505 13.6856C23.0623 13.7748 23.2541 13.9055 23.4147 14.07C23.5753 14.2344 23.7013 14.4293 23.7855 14.6432C23.8696 14.8571 23.9102 15.0857 23.9047 15.3154V15.9511C23.9102 16.1809 23.8696 16.4095 23.7855 16.6234C23.7013 16.8373 23.5753 17.0322 23.4147 17.1966C23.2541 17.3611 23.0623 17.4917 22.8505 17.581C22.6386 17.6702 22.4111 17.7161 22.1813 17.7161C21.9514 17.7161 21.7239 17.6702 21.5121 17.581C21.3002 17.4917 21.1084 17.3611 20.9478 17.1966C20.7872 17.0322 20.6612 16.8373 20.577 16.6234C20.4929 16.4095 20.4524 16.1809 20.4578 15.9511ZM27.8374 20.7918C27.0956 19.6077 25.9986 18.6882 24.703 18.1648C25.2418 17.5533 25.5389 16.7662 25.5385 15.9511V15.3154C25.5461 14.8692 25.4648 14.426 25.2993 14.0115C25.1338 13.597 24.8874 13.2197 24.5746 12.9014C24.2617 12.5831 23.8886 12.3304 23.477 12.1578C23.0654 11.9853 22.6236 11.8964 22.1773 11.8964C21.7311 11.8964 21.2892 11.9853 20.8777 12.1578C20.4661 12.3304 20.093 12.5831 19.7801 12.9014C19.4672 13.2197 19.2209 13.597 19.0554 14.0115C18.8899 14.426 18.8086 14.8692 18.8162 15.3154V15.9511C18.8158 16.7662 19.1129 17.5533 19.6517 18.1648C18.3561 18.6882 17.2591 19.6077 16.5173 20.7918C15.6811 19.7301 15.1606 18.4545 15.0153 17.1109C14.8701 15.7672 15.106 14.4098 15.696 13.1939C16.2861 11.9781 17.2064 10.9529 18.3519 10.2356C19.4973 9.51826 20.8215 9.13784 22.1729 9.13784C23.5244 9.13784 24.8486 9.51826 25.994 10.2356C27.1394 10.9529 28.0598 11.9781 28.6498 13.1939C29.2399 14.4098 29.4758 15.7672 29.3306 17.1109C29.1853 18.4545 28.6648 19.7301 27.8286 20.7918H27.8374Z" fill="#56BDFD"/>
</g>
</g>
<g id="Group 28">
<g id="Group 27">
<path id="Path 33" d="M21.6156 3.27544C18.1833 3.33319 14.9139 4.74953 12.5242 7.21396C10.1345 9.67839 8.81947 12.9898 8.86741 16.4223C8.85989 18.4006 9.2944 20.3556 10.1392 22.1444C10.984 23.9333 12.2177 25.5109 13.7502 26.7619L4.24907 36.5627C4.10937 36.7084 3.94165 36.8244 3.75598 36.9036C3.57031 36.9828 3.37054 37.0236 3.16868 37.0236C2.96682 37.0236 2.76705 36.9828 2.58138 36.9036C2.39571 36.8244 2.22799 36.7084 2.08829 36.5627C1.801 36.2629 1.64061 35.8638 1.64061 35.4485C1.64061 35.0333 1.801 34.6342 2.08829 34.3344L6.94857 29.3213C7.10248 29.1607 7.18841 28.9468 7.18841 28.7243C7.18841 28.5018 7.10248 28.2879 6.94857 28.1273C6.87377 28.0491 6.78392 27.9869 6.68443 27.9444C6.58494 27.9019 6.47787 27.88 6.36968 27.88C6.2615 27.88 6.15443 27.9019 6.05494 27.9444C5.95545 27.9869 5.8656 28.0491 5.7908 28.1273L0.927588 33.1413C0.332394 33.7626 0.00012207 34.5897 0.00012207 35.45C0.00012207 36.3104 0.332394 37.1375 0.927588 37.7587C1.21711 38.0605 1.56467 38.3007 1.94938 38.4647C2.33409 38.6288 2.748 38.7134 3.16623 38.7134C3.58446 38.7134 3.99838 38.6288 4.38309 38.4647C4.7678 38.3007 5.11536 38.0605 5.40488 37.7587L15.1244 27.7335C17.0765 28.9347 19.3236 29.5705 21.6156 29.5701C25.0316 29.4638 28.2722 28.032 30.651 25.578C33.0298 23.124 34.3601 19.8405 34.3601 16.4228C34.3601 13.005 33.0298 9.72152 30.651 7.26752C28.2722 4.81353 25.0316 3.38177 21.6156 3.27544ZM21.6156 27.8814C18.5762 27.8814 15.6612 26.674 13.512 24.5248C11.3629 22.3756 10.1554 19.4607 10.1554 16.4213C10.1554 13.3819 11.3629 10.4669 13.512 8.31776C15.6612 6.16856 18.5762 4.96116 21.6156 4.96116C24.655 4.96116 27.5699 6.16856 29.7191 8.31776C31.8683 10.4669 33.0757 13.3819 33.0757 16.4213C33.0757 19.4607 31.8683 22.3756 29.7191 24.5248C27.5699 26.674 24.655 27.8814 21.6156 27.8814Z" fill="#56BDFD"/>
</g>
</g>
<g id="Group 30">
<g id="Group 29">
<path id="Path 34" d="M9.74014 25.4523C9.60627 25.3186 9.43019 25.2355 9.2419 25.2171C9.05361 25.1986 8.86475 25.2461 8.7075 25.3512C8.55025 25.4564 8.43433 25.6129 8.37948 25.7939C8.32464 25.975 8.33426 26.1695 8.40671 26.3442C8.47916 26.519 8.60996 26.6633 8.77682 26.7524C8.94369 26.8416 9.1363 26.8701 9.32186 26.8332C9.50741 26.7963 9.67442 26.6962 9.79445 26.5499C9.91448 26.4037 9.98009 26.2204 9.98012 26.0312C9.97951 25.8141 9.89327 25.6061 9.74014 25.4523Z" fill="#56BDFD"/>
</g>
</g>
</g>
<defs>
<clipPath id="clip0_62_643">
<rect width="43" height="43" fill="white"/>
</clipPath>
</defs>
</svg>
